<svg xmlns="http://www.w3.org/2000/svg" version="1.1" xmlns:xlink="http://www.w3.org/1999/xlink" xmlns:svgjs="http://svgjs.dev/svgjs" width="1440" height="560" preserveAspectRatio="none" viewBox="0 0 1440 560"><g mask="url(&quot;#SvgjsMask1233&quot;)" fill="none"><rect width="1440" height="560" x="0" y="0" fill="rgba(28, 28, 39, 1)"></rect><path d="M10.17 -37.62L53.47 -12.62L53.47 37.38L10.17 62.38L-33.13 37.38L-33.13 -12.62zM53.47 187.38L96.78 212.38L96.78 262.38L53.47 287.38L10.17 262.38L10.17 212.38zM140.08 187.38L183.38 212.38L183.38 262.38L140.08 287.38L96.78 262.38L96.78 212.38zM183.38 -37.62L226.68 -12.62L226.68 37.38L183.38 62.38L140.08 37.38L140.08 -12.62zM226.68 37.38L269.99 62.38L269.99 112.38L226.68 137.38L183.38 112.38L183.38 62.38zM183.38 112.38L226.68 137.38L226.68 187.38L183.38 212.38L140.08 187.38L140.08 137.38zM269.99 112.38L313.29 137.38L313.29 187.38L269.99 212.38L226.68 187.38L226.68 137.38zM269.99 262.38L313.29 287.38L313.29 337.38L269.99 362.38L226.68 337.38L226.68 287.38zM269.99 412.38L313.29 437.38L313.29 487.38L269.99 512.38L226.68 487.38L226.68 437.38zM356.59 -37.62L399.89 -12.62L399.89 37.38L356.59 62.38L313.29 37.38L313.29 -12.62zM486.5 37.38L529.8 62.38L529.8 112.38L486.5 137.38L443.2 112.38L443.2 62.38zM529.8 -37.62L573.1 -12.62L573.1 37.38L529.8 62.38L486.5 37.38L486.5 -12.62zM573.1 37.38L616.4 62.38L616.4 112.38L573.1 137.38L529.8 112.38L529.8 62.38zM616.4 112.38L659.71 137.38L659.71 187.38L616.4 212.38L573.1 187.38L573.1 137.38zM746.31 37.38L789.62 62.38L789.62 112.38L746.31 137.38L703.01 112.38L703.01 62.38zM703.01 412.38L746.31 437.38L746.31 487.38L703.01 512.38L659.71 487.38L659.71 437.38zM746.31 487.38L789.62 512.38L789.62 562.38L746.31 587.38L703.01 562.38L703.01 512.38zM789.62 -37.62L832.92 -12.62L832.92 37.38L789.62 62.38L746.31 37.38L746.31 -12.62zM789.62 112.38L832.92 137.38L832.92 187.38L789.62 212.38L746.31 187.38L746.31 137.38zM789.62 262.38L832.92 287.38L832.92 337.38L789.62 362.38L746.31 337.38L746.31 287.38zM832.92 487.38L876.22 512.38L876.22 562.38L832.92 587.38L789.62 562.38L789.62 512.38zM876.22 262.38L919.52 287.38L919.52 337.38L876.22 362.38L832.92 337.38L832.92 287.38zM876.22 412.38L919.52 437.38L919.52 487.38L876.22 512.38L832.92 487.38L832.92 437.38zM1092.73 487.38L1136.04 512.38L1136.04 562.38L1092.73 587.38L1049.43 562.38L1049.43 512.38zM1179.34 37.38L1222.64 62.38L1222.64 112.38L1179.34 137.38L1136.04 112.38L1136.04 62.38zM1179.34 487.38L1222.64 512.38L1222.64 562.38L1179.34 587.38L1136.04 562.38L1136.04 512.38zM1222.64 -37.62L1265.94 -12.62L1265.94 37.38L1222.64 62.38L1179.34 37.38L1179.34 -12.62zM1265.94 337.38L1309.25 362.38L1309.25 412.38L1265.94 437.38L1222.64 412.38L1222.64 362.38zM1352.55 37.38L1395.85 62.38L1395.85 112.38L1352.55 137.38L1309.25 112.38L1309.25 62.38zM1309.25 262.38L1352.55 287.38L1352.55 337.38L1309.25 362.38L1265.94 337.38L1265.94 287.38z" stroke="rgba(31, 64, 55, 1)" stroke-width="2"></path><path d="M5.17 -37.62 a5 5 0 1 0 10 0 a5 5 0 1 0 -10 0zM48.47 -12.62 a5 5 0 1 0 10 0 a5 5 0 1 0 -10 0zM48.47 37.38 a5 5 0 1 0 10 0 a5 5 0 1 0 -10 0zM5.17 62.38 a5 5 0 1 0 10 0 a5 5 0 1 0 -10 0zM-38.13 37.38 a5 5 0 1 0 10 0 a5 5 0 1 0 -10 0zM-38.13 -12.62 a5 5 0 1 0 10 0 a5 5 0 1 0 -10 0zM48.47 187.38 a5 5 0 1 0 10 0 a5 5 0 1 0 -10 0zM91.78 212.38 a5 5 0 1 0 10 0 a5 5 0 1 0 -10 0zM91.78 262.38 a5 5 0 1 0 10 0 a5 5 0 1 0 -10 0zM48.47 287.38 a5 5 0 1 0 10 0 a5 5 0 1 0 -10 0zM5.17 262.38 a5 5 0 1 0 10 0 a5 5 0 1 0 -10 0zM5.17 212.38 a5 5 0 1 0 10 0 a5 5 0 1 0 -10 0zM135.08 187.38 a5 5 0 1 0 10 0 a5 5 0 1 0 -10 0zM178.38 212.38 a5 5 0 1 0 10 0 a5 5 0 1 0 -10 0zM178.38 262.38 a5 5 0 1 0 10 0 a5 5 0 1 0 -10 0zM135.08 287.38 a5 5 0 1 0 10 0 a5 5 0 1 0 -10 0zM178.38 -37.62 a5 5 0 1 0 10 0 a5 5 0 1 0 -10 0zM221.68 -12.62 a5 5 0 1 0 10 0 a5 5 0 1 0 -10 0zM221.68 37.38 a5 5 0 1 0 10 0 a5 5 0 1 0 -10 0zM178.38 62.38 a5 5 0 1 0 10 0 a5 5 0 1 0 -10 0zM135.08 37.38 a5 5 0 1 0 10 0 a5 5 0 1 0 -10 0zM135.08 -12.62 a5 5 0 1 0 10 0 a5 5 0 1 0 -10 0zM264.99 62.38 a5 5 0 1 0 10 0 a5 5 0 1 0 -10 0zM264.99 112.38 a5 5 0 1 0 10 0 a5 5 0 1 0 -10 0zM221.68 137.38 a5 5 0 1 0 10 0 a5 5 0 1 0 -10 0zM178.38 112.38 a5 5 0 1 0 10 0 a5 5 0 1 0 -10 0zM221.68 187.38 a5 5 0 1 0 10 0 a5 5 0 1 0 -10 0zM135.08 137.38 a5 5 0 1 0 10 0 a5 5 0 1 0 -10 0zM308.29 137.38 a5 5 0 1 0 10 0 a5 5 0 1 0 -10 0zM308.29 187.38 a5 5 0 1 0 10 0 a5 5 0 1 0 -10 0zM264.99 212.38 a5 5 0 1 0 10 0 a5 5 0 1 0 -10 0zM264.99 262.38 a5 5 0 1 0 10 0 a5 5 0 1 0 -10 0zM308.29 287.38 a5 5 0 1 0 10 0 a5 5 0 1 0 -10 0zM308.29 337.38 a5 5 0 1 0 10 0 a5 5 0 1 0 -10 0zM264.99 362.38 a5 5 0 1 0 10 0 a5 5 0 1 0 -10 0zM221.68 337.38 a5 5 0 1 0 10 0 a5 5 0 1 0 -10 0zM221.68 287.38 a5 5 0 1 0 10 0 a5 5 0 1 0 -10 0zM264.99 412.38 a5 5 0 1 0 10 0 a5 5 0 1 0 -10 0zM308.29 437.38 a5 5 0 1 0 10 0 a5 5 0 1 0 -10 0zM308.29 487.38 a5 5 0 1 0 10 0 a5 5 0 1 0 -10 0zM264.99 512.38 a5 5 0 1 0 10 0 a5 5 0 1 0 -10 0zM221.68 487.38 a5 5 0 1 0 10 0 a5 5 0 1 0 -10 0zM221.68 437.38 a5 5 0 1 0 10 0 a5 5 0 1 0 -10 0zM351.59 -37.62 a5 5 0 1 0 10 0 a5 5 0 1 0 -10 0zM394.89 -12.62 a5 5 0 1 0 10 0 a5 5 0 1 0 -10 0zM394.89 37.38 a5 5 0 1 0 10 0 a5 5 0 1 0 -10 0zM351.59 62.38 a5 5 0 1 0 10 0 a5 5 0 1 0 -10 0zM308.29 37.38 a5 5 0 1 0 10 0 a5 5 0 1 0 -10 0zM308.29 -12.62 a5 5 0 1 0 10 0 a5 5 0 1 0 -10 0zM481.5 37.38 a5 5 0 1 0 10 0 a5 5 0 1 0 -10 0zM524.8 62.38 a5 5 0 1 0 10 0 a5 5 0 1 0 -10 0zM524.8 112.38 a5 5 0 1 0 10 0 a5 5 0 1 0 -10 0zM481.5 137.38 a5 5 0 1 0 10 0 a5 5 0 1 0 -10 0zM438.2 112.38 a5 5 0 1 0 10 0 a5 5 0 1 0 -10 0zM438.2 62.38 a5 5 0 1 0 10 0 a5 5 0 1 0 -10 0zM524.8 -37.62 a5 5 0 1 0 10 0 a5 5 0 1 0 -10 0zM568.1 -12.62 a5 5 0 1 0 10 0 a5 5 0 1 0 -10 0zM568.1 37.38 a5 5 0 1 0 10 0 a5 5 0 1 0 -10 0zM481.5 -12.62 a5 5 0 1 0 10 0 a5 5 0 1 0 -10 0zM611.4 62.38 a5 5 0 1 0 10 0 a5 5 0 1 0 -10 0zM611.4 112.38 a5 5 0 1 0 10 0 a5 5 0 1 0 -10 0zM568.1 137.38 a5 5 0 1 0 10 0 a5 5 0 1 0 -10 0zM654.71 137.38 a5 5 0 1 0 10 0 a5 5 0 1 0 -10 0zM654.71 187.38 a5 5 0 1 0 10 0 a5 5 0 1 0 -10 0zM611.4 212.38 a5 5 0 1 0 10 0 a5 5 0 1 0 -10 0zM568.1 187.38 a5 5 0 1 0 10 0 a5 5 0 1 0 -10 0zM741.31 37.38 a5 5 0 1 0 10 0 a5 5 0 1 0 -10 0zM784.62 62.38 a5 5 0 1 0 10 0 a5 5 0 1 0 -10 0zM784.62 112.38 a5 5 0 1 0 10 0 a5 5 0 1 0 -10 0zM741.31 137.38 a5 5 0 1 0 10 0 a5 5 0 1 0 -10 0zM698.01 112.38 a5 5 0 1 0 10 0 a5 5 0 1 0 -10 0zM698.01 62.38 a5 5 0 1 0 10 0 a5 5 0 1 0 -10 0zM698.01 412.38 a5 5 0 1 0 10 0 a5 5 0 1 0 -10 0zM741.31 437.38 a5 5 0 1 0 10 0 a5 5 0 1 0 -10 0zM741.31 487.38 a5 5 0 1 0 10 0 a5 5 0 1 0 -10 0zM698.01 512.38 a5 5 0 1 0 10 0 a5 5 0 1 0 -10 0zM654.71 487.38 a5 5 0 1 0 10 0 a5 5 0 1 0 -10 0zM654.71 437.38 a5 5 0 1 0 10 0 a5 5 0 1 0 -10 0zM784.62 512.38 a5 5 0 1 0 10 0 a5 5 0 1 0 -10 0zM784.62 562.38 a5 5 0 1 0 10 0 a5 5 0 1 0 -10 0zM741.31 587.38 a5 5 0 1 0 10 0 a5 5 0 1 0 -10 0zM698.01 562.38 a5 5 0 1 0 10 0 a5 5 0 1 0 -10 0zM784.62 -37.62 a5 5 0 1 0 10 0 a5 5 0 1 0 -10 0zM827.92 -12.62 a5 5 0 1 0 10 0 a5 5 0 1 0 -10 0zM827.92 37.38 a5 5 0 1 0 10 0 a5 5 0 1 0 -10 0zM741.31 -12.62 a5 5 0 1 0 10 0 a5 5 0 1 0 -10 0zM827.92 137.38 a5 5 0 1 0 10 0 a5 5 0 1 0 -10 0zM827.92 187.38 a5 5 0 1 0 10 0 a5 5 0 1 0 -10 0zM784.62 212.38 a5 5 0 1 0 10 0 a5 5 0 1 0 -10 0zM741.31 187.38 a5 5 0 1 0 10 0 a5 5 0 1 0 -10 0zM784.62 262.38 a5 5 0 1 0 10 0 a5 5 0 1 0 -10 0zM827.92 287.38 a5 5 0 1 0 10 0 a5 5 0 1 0 -10 0zM827.92 337.38 a5 5 0 1 0 10 0 a5 5 0 1 0 -10 0zM784.62 362.38 a5 5 0 1 0 10 0 a5 5 0 1 0 -10 0zM741.31 337.38 a5 5 0 1 0 10 0 a5 5 0 1 0 -10 0zM741.31 287.38 a5 5 0 1 0 10 0 a5 5 0 1 0 -10 0zM827.92 487.38 a5 5 0 1 0 10 0 a5 5 0 1 0 -10 0zM871.22 512.38 a5 5 0 1 0 10 0 a5 5 0 1 0 -10 0zM871.22 562.38 a5 5 0 1 0 10 0 a5 5 0 1 0 -10 0zM827.92 587.38 a5 5 0 1 0 10 0 a5 5 0 1 0 -10 0zM871.22 262.38 a5 5 0 1 0 10 0 a5 5 0 1 0 -10 0zM914.52 287.38 a5 5 0 1 0 10 0 a5 5 0 1 0 -10 0zM914.52 337.38 a5 5 0 1 0 10 0 a5 5 0 1 0 -10 0zM871.22 362.38 a5 5 0 1 0 10 0 a5 5 0 1 0 -10 0zM871.22 412.38 a5 5 0 1 0 10 0 a5 5 0 1 0 -10 0zM914.52 437.38 a5 5 0 1 0 10 0 a5 5 0 1 0 -10 0zM914.52 487.38 a5 5 0 1 0 10 0 a5 5 0 1 0 -10 0zM827.92 437.38 a5 5 0 1 0 10 0 a5 5 0 1 0 -10 0zM1087.73 487.38 a5 5 0 1 0 10 0 a5 5 0 1 0 -10 0zM1131.04 512.38 a5 5 0 1 0 10 0 a5 5 0 1 0 -10 0zM1131.04 562.38 a5 5 0 1 0 10 0 a5 5 0 1 0 -10 0zM1087.73 587.38 a5 5 0 1 0 10 0 a5 5 0 1 0 -10 0zM1044.43 562.38 a5 5 0 1 0 10 0 a5 5 0 1 0 -10 0zM1044.43 512.38 a5 5 0 1 0 10 0 a5 5 0 1 0 -10 0zM1174.34 37.38 a5 5 0 1 0 10 0 a5 5 0 1 0 -10 0zM1217.64 62.38 a5 5 0 1 0 10 0 a5 5 0 1 0 -10 0zM1217.64 112.38 a5 5 0 1 0 10 0 a5 5 0 1 0 -10 0zM1174.34 137.38 a5 5 0 1 0 10 0 a5 5 0 1 0 -10 0zM1131.04 112.38 a5 5 0 1 0 10 0 a5 5 0 1 0 -10 0zM1131.04 62.38 a5 5 0 1 0 10 0 a5 5 0 1 0 -10 0zM1174.34 487.38 a5 5 0 1 0 10 0 a5 5 0 1 0 -10 0zM1217.64 512.38 a5 5 0 1 0 10 0 a5 5 0 1 0 -10 0zM1217.64 562.38 a5 5 0 1 0 10 0 a5 5 0 1 0 -10 0zM1174.34 587.38 a5 5 0 1 0 10 0 a5 5 0 1 0 -10 0zM1217.64 -37.62 a5 5 0 1 0 10 0 a5 5 0 1 0 -10 0zM1260.94 -12.62 a5 5 0 1 0 10 0 a5 5 0 1 0 -10 0zM1260.94 37.38 a5 5 0 1 0 10 0 a5 5 0 1 0 -10 0zM1174.34 -12.62 a5 5 0 1 0 10 0 a5 5 0 1 0 -10 0zM1260.94 337.38 a5 5 0 1 0 10 0 a5 5 0 1 0 -10 0zM1304.25 362.38 a5 5 0 1 0 10 0 a5 5 0 1 0 -10 0zM1304.25 412.38 a5 5 0 1 0 10 0 a5 5 0 1 0 -10 0zM1260.94 437.38 a5 5 0 1 0 10 0 a5 5 0 1 0 -10 0zM1217.64 412.38 a5 5 0 1 0 10 0 a5 5 0 1 0 -10 0zM1217.64 362.38 a5 5 0 1 0 10 0 a5 5 0 1 0 -10 0zM1347.55 37.38 a5 5 0 1 0 10 0 a5 5 0 1 0 -10 0zM1390.85 62.38 a5 5 0 1 0 10 0 a5 5 0 1 0 -10 0zM1390.85 112.38 a5 5 0 1 0 10 0 a5 5 0 1 0 -10 0zM1347.55 137.38 a5 5 0 1 0 10 0 a5 5 0 1 0 -10 0zM1304.25 112.38 a5 5 0 1 0 10 0 a5 5 0 1 0 -10 0zM1304.25 62.38 a5 5 0 1 0 10 0 a5 5 0 1 0 -10 0zM1304.25 262.38 a5 5 0 1 0 10 0 a5 5 0 1 0 -10 0zM1347.55 287.38 a5 5 0 1 0 10 0 a5 5 0 1 0 -10 0zM1347.55 337.38 a5 5 0 1 0 10 0 a5 5 0 1 0 -10 0zM1260.94 287.38 a5 5 0 1 0 10 0 a5 5 0 1 0 -10 0z" fill="rgba(31, 64, 55, 1)"></path><path d="M25.11 134.67L68.41 159.67L68.41 209.67L25.11 234.67L-18.19 209.67L-18.19 159.67zM25.11 284.67L68.41 309.67L68.41 359.67L25.11 384.67L-18.19 359.67L-18.19 309.67zM111.72 284.67L155.02 309.67L155.02 359.67L111.72 384.67L68.41 359.67L68.41 309.67zM241.62 359.67L284.93 384.67L284.93 434.67L241.62 459.67L198.32 434.67L198.32 384.67zM198.32 434.67L241.62 459.67L241.62 509.67L198.32 534.67L155.02 509.67L155.02 459.67zM241.62 509.67L284.93 534.67L284.93 584.67L241.62 609.67L198.32 584.67L198.32 534.67zM328.23 359.67L371.53 384.67L371.53 434.67L328.23 459.67L284.93 434.67L284.93 384.67zM371.53 284.67L414.83 309.67L414.83 359.67L371.53 384.67L328.23 359.67L328.23 309.67zM371.53 434.67L414.83 459.67L414.83 509.67L371.53 534.67L328.23 509.67L328.23 459.67zM458.14 284.67L501.44 309.67L501.44 359.67L458.14 384.67L414.83 359.67L414.83 309.67zM501.44 509.67L544.74 534.67L544.74 584.67L501.44 609.67L458.14 584.67L458.14 534.67zM588.04 59.67L631.35 84.67L631.35 134.67L588.04 159.67L544.74 134.67L544.74 84.67zM544.74 134.67L588.04 159.67L588.04 209.67L544.74 234.67L501.44 209.67L501.44 159.67zM544.74 284.67L588.04 309.67L588.04 359.67L544.74 384.67L501.44 359.67L501.44 309.67zM674.65 509.67L717.95 534.67L717.95 584.67L674.65 609.67L631.35 584.67L631.35 534.67zM717.95 134.67L761.25 159.67L761.25 209.67L717.95 234.67L674.65 209.67L674.65 159.67zM847.86 59.67L891.16 84.67L891.16 134.67L847.86 159.67L804.56 134.67L804.56 84.67zM847.86 209.67L891.16 234.67L891.16 284.67L847.86 309.67L804.56 284.67L804.56 234.67zM847.86 359.67L891.16 384.67L891.16 434.67L847.86 459.67L804.56 434.67L804.56 384.67zM934.46 59.67L977.77 84.67L977.77 134.67L934.46 159.67L891.16 134.67L891.16 84.67zM891.16 134.67L934.46 159.67L934.46 209.67L891.16 234.67L847.86 209.67L847.86 159.67zM934.46 359.67L977.77 384.67L977.77 434.67L934.46 459.67L891.16 434.67L891.16 384.67zM891.16 434.67L934.46 459.67L934.46 509.67L891.16 534.67L847.86 509.67L847.86 459.67zM977.77 284.67L1021.07 309.67L1021.07 359.67L977.77 384.67L934.46 359.67L934.46 309.67zM1064.37 -15.33L1107.67 9.67L1107.67 59.67L1064.37 84.67L1021.07 59.67L1021.07 9.67zM1107.67 209.67L1150.97 234.67L1150.97 284.67L1107.67 309.67L1064.37 284.67L1064.37 234.67zM1064.37 284.67L1107.67 309.67L1107.67 359.67L1064.37 384.67L1021.07 359.67L1021.07 309.67zM1150.97 134.67L1194.28 159.67L1194.28 209.67L1150.97 234.67L1107.67 209.67L1107.67 159.67zM1150.97 284.67L1194.28 309.67L1194.28 359.67L1150.97 384.67L1107.67 359.67L1107.67 309.67zM1280.88 209.67L1324.18 234.67L1324.18 284.67L1280.88 309.67L1237.58 284.67L1237.58 234.67zM1324.18 -15.33L1367.49 9.67L1367.49 59.67L1324.18 84.67L1280.88 59.67L1280.88 9.67zM1367.49 209.67L1410.79 234.67L1410.79 284.67L1367.49 309.67L1324.18 284.67L1324.18 234.67zM1367.49 509.67L1410.79 534.67L1410.79 584.67L1367.49 609.67L1324.18 584.67L1324.18 534.67zM1410.79 -15.33L1454.09 9.67L1454.09 59.67L1410.79 84.67L1367.49 59.67L1367.49 9.67zM1410.79 134.67L1454.09 159.67L1454.09 209.67L1410.79 234.67L1367.49 209.67L1367.49 159.67zM1410.79 434.67L1454.09 459.67L1454.09 509.67L1410.79 534.67L1367.49 509.67L1367.49 459.67zM1454.09 509.67L1497.39 534.67L1497.39 584.67L1454.09 609.67L1410.79 584.67L1410.79 534.67z" stroke="rgba(153, 242, 200, 1)" stroke-width="2"></path></g><defs><mask id="SvgjsMask1233"><rect width="1440" height="560" fill="#ffffff"></rect></mask></defs></svg>